<?xml version="1.0" encoding="UTF-8"?>
<svg id="Layer_1" data-name="Layer 1" xmlns="http://www.w3.org/2000/svg" viewBox="0 0 1920 1081.34">
  <defs>
    <style>
      .cls-1 {
        fill: #3a3a3a;
      }

      .cls-1, .cls-2, .cls-3, .cls-4, .cls-5, .cls-6, .cls-7, .cls-8, .cls-9, .cls-10, .cls-11, .cls-12, .cls-13, .cls-14, .cls-15, .cls-16 {
        stroke-width: 0px;
      }

      .cls-17 {
        fill: #121212;
      }

      .cls-17, .cls-18, .cls-19, .cls-20, .cls-21 {
        stroke: #000;
      }

      .cls-17, .cls-19 {
        stroke-miterlimit: 10;
      }

      .cls-2 {
        fill: #828282;
      }

      .cls-3 {
        fill: #fdc374;
      }

      .cls-4 {
        fill: #454344;
      }

      .cls-5 {
        fill: #a01c20;
      }

      .cls-22 {
        fill: none;
        stroke: #481319;
      }

      .cls-22, .cls-18, .cls-20, .cls-21 {
        stroke-linejoin: round;
      }

      .cls-22, .cls-20, .cls-21 {
        stroke-linecap: round;
      }

      .cls-6 {
        fill: #422e2f;
      }

      .cls-18 {
        fill: #712326;
      }

      .cls-7 {
        fill: #db3d43;
      }

      .cls-8 {
        fill: #4d3435;
      }

      .cls-9 {
        fill: #00a155;
      }

      .cls-10 {
        fill: #a1222a;
      }

      .cls-19 {
        fill: #381214;
      }

      .cls-20 {
        fill: #581118;
      }

      .cls-11 {
        fill: #303030;
      }

      .cls-12 {
        fill: #8e1922;
      }

      .cls-13 {
        fill: #3d3d3d;
      }

      .cls-14 {
        fill: #686868;
      }

      .cls-15 {
        fill: #220e0f;
      }

      .cls-16 {
        fill: #fff;
      }

      .cls-21 {
        fill: #481319;
      }
    </style>
  </defs>
  <polygon class="cls-12" points="618.77 281.93 618.77 196.39 439.33 196.39 439.33 282.68 618.77 281.93"/>
  <polygon class="cls-10" points="792.03 280.37 792.03 196.29 615.8 196.29 615.8 281.11 792.03 280.37"/>
  <path class="cls-12" d="M967.56,280.37v-84.08h-176.24v84.82c58.74-.25,117.49-.49,176.24-.74Z"/>
  <polygon class="cls-10" points="1143.8 279.88 1143.8 195.8 967.56 195.8 967.56 280.62 1143.8 279.88"/>
  <path class="cls-12" d="M1320.5,280.62c-.16-28.27-.31-56.55-.47-84.82h-176.24v84.82h176.7Z"/>
  <polygon class="cls-10" points="1496.27 281.06 1496.27 196.98 1320.03 196.98 1320.03 281.8 1496.27 281.06"/>
  <path class="cls-10" d="M439.33,282.68v-86.39h-34.17c-.12,29.04-.23,58.08-.35,87.11,11.5-.24,23.01-.48,34.51-.72Z"/>
  <path class="cls-10" d="M615.56,196.29v-84.82h-176.24v84.82h176.24Z"/>
  <path class="cls-12" d="M791.8,196.29v-84.82h-176.24v84.82h176.24Z"/>
  <path class="cls-10" d="M968.03,196.98v-85.51h-176.24v84.82c58.74.23,117.49.46,176.24.69Z"/>
  <polygon class="cls-12" points="1144.27 196.24 1144.27 112.16 968.03 112.16 968.03 196.98 1144.27 196.24"/>
  <polygon class="cls-10" points="1320.5 196.24 1320.5 112.16 1144.27 112.16 1144.27 196.98 1320.5 196.24"/>
  <path class="cls-12" d="M1496.41,196.98c.11-28.27.22-56.55.33-84.82h-176.24v84.82h175.91Z"/>
  <path class="cls-10" d="M1511.08,196.98c.14-28.27.27-56.55.41-84.82h-15.08v84.82h14.67Z"/>
  <path class="cls-12" d="M439.33,196.29v-84.82h-34.17v84.82h34.17Z"/>
  <path class="cls-12" d="M615.56,112.16V27.34h-176.24v84.82h176.24Z"/>
  <polygon class="cls-10" points="791.8 111.42 791.8 27.34 615.56 27.34 615.56 112.16 791.8 111.42"/>
  <path class="cls-12" d="M968.03,111.47V26.65h-176.24v84.82h176.24Z"/>
  <path class="cls-10" d="M1144.23,112.16c.01-28.27.03-56.55.04-84.82h-176.24v84.82h176.2Z"/>
  <path class="cls-12" d="M1320.58,112.5c-.15-28.5-.29-57.01-.44-85.51h-176.23c-.01,28.39-.03,56.79-.04,85.18,58.9.11,117.81.22,176.71.33Z"/>
  <path class="cls-10" d="M1496.94,112.16c-.14-28.27-.27-56.55-.41-84.82h-176.24v84.82h176.64Z"/>
  <path class="cls-10" d="M439.79,112.14c-.09-28.27-.19-56.53-.28-84.8-11.29.38-22.59.77-33.88,1.15-.16,27.66-.31,55.32-.47,82.98,11.55.22,23.09.45,34.63.67Z"/>
  <path class="cls-10" d="M615.56,28.62V0h-176.24v28.62h176.24Z"/>
  <path class="cls-12" d="M791.8,28.62V0h-176.24v28.62h176.24Z"/>
  <polygon class="cls-10" points="968.03 28.37 968.03 0 791.8 0 791.8 28.62 968.03 28.37"/>
  <path class="cls-12" d="M1144.27,28.62V0h-176.23v28.62h176.23Z"/>
  <path class="cls-10" d="M1320.5,28.62V0h-176.24v28.62h176.24Z"/>
  <path class="cls-12" d="M1496.41,28.62c.11-9.54.22-19.08.33-28.62h-176.24v28.62h175.91Z"/>
  <polygon class="cls-12" points="1511.02 280.47 1511.02 196.39 1495.94 196.39 1495.94 281.21 1511.02 280.47"/>
  <path class="cls-12" d="M1511.49,112.16c-.16-28.27-.31-56.55-.47-84.82h-15.08v84.82h15.55Z"/>
  <polygon class="cls-12" points="616.76 617.93 616.76 532.39 437.31 532.39 437.31 618.68 616.76 617.93"/>
  <polygon class="cls-10" points="790.01 616.37 790.01 532.29 613.78 532.29 613.78 617.11 790.01 616.37"/>
  <path class="cls-12" d="M965.55,616.37v-84.08h-176.24v84.82c58.74-.25,117.49-.49,176.24-.74Z"/>
  <polygon class="cls-10" points="1141.78 615.88 1141.78 531.8 965.55 531.8 965.55 616.62 1141.78 615.88"/>
  <path class="cls-12" d="M1318.48,616.62c-.16-28.27-.31-56.55-.47-84.82h-176.24v84.82h176.7Z"/>
  <polygon class="cls-10" points="1494.25 617.06 1494.25 532.98 1318.02 532.98 1318.02 617.8 1494.25 617.06"/>
  <path class="cls-10" d="M437.31,618.68v-86.39h-34.17c-.12,29.04-.23,58.08-.35,87.11,11.5-.24,23.01-.48,34.51-.72Z"/>
  <path class="cls-10" d="M613.54,532.29v-84.82h-176.24v84.82h176.24Z"/>
  <path class="cls-12" d="M789.78,532.29v-84.82h-176.24v84.82h176.24Z"/>
  <path class="cls-10" d="M966.01,532.98v-85.51h-176.24v84.82c58.74.23,117.49.46,176.24.69Z"/>
  <polygon class="cls-12" points="1142.25 532.24 1142.25 448.16 966.01 448.16 966.01 532.98 1142.25 532.24"/>
  <polygon class="cls-10" points="1318.48 532.24 1318.48 448.16 1142.25 448.16 1142.25 532.98 1318.48 532.24"/>
  <path class="cls-12" d="M1494.39,532.98c.11-28.27.22-56.55.33-84.82h-176.24v84.82h175.91Z"/>
  <path class="cls-10" d="M1509.06,532.98c.14-28.27.27-56.55.41-84.82h-15.08v84.82h14.67Z"/>
  <path class="cls-12" d="M437.31,532.29v-84.82h-34.17v84.82h34.17Z"/>
  <path class="cls-12" d="M613.54,448.16v-84.82h-176.24v84.82h176.24Z"/>
  <polygon class="cls-10" points="789.78 447.42 789.78 363.34 613.54 363.34 613.54 448.16 789.78 447.42"/>
  <path class="cls-12" d="M966.01,447.47v-84.82h-176.24v84.82h176.24Z"/>
  <path class="cls-10" d="M1142.21,448.16c.01-28.27.03-56.55.04-84.82h-176.24v84.82h176.2Z"/>
  <path class="cls-12" d="M1318.56,448.49c-.15-28.5-.29-57.01-.44-85.51h-176.23c-.01,28.39-.03,56.79-.04,85.18,58.9.11,117.81.22,176.71.33Z"/>
  <path class="cls-10" d="M1494.92,448.16c-.14-28.27-.27-56.55-.41-84.82h-176.24v84.82h176.64Z"/>
  <path class="cls-10" d="M437.78,448.14c-.09-28.27-.19-56.53-.28-84.8-11.29.38-22.59.77-33.88,1.15-.16,27.66-.31,55.32-.47,82.98,11.54.22,23.09.45,34.63.67Z"/>
  <path class="cls-10" d="M613.54,363.29v-84.82h-176.24v84.82h176.24Z"/>
  <path class="cls-12" d="M789.78,363.29v-84.82h-176.24v84.82h176.24Z"/>
  <polygon class="cls-10" points="966.01 362.55 966.01 278.47 789.78 278.47 789.78 363.29 966.01 362.55"/>
  <path class="cls-12" d="M1142.25,363.29v-84.82h-176.23v84.82h176.23Z"/>
  <path class="cls-10" d="M1318.48,363.29v-84.82h-176.24v84.82h176.24Z"/>
  <path class="cls-12" d="M1494.39,363.29c.11-28.27.22-56.55.33-84.82h-176.24v84.82h175.91Z"/>
  <path class="cls-10" d="M1509.06,363.34c.14-28.29.27-56.58.41-84.87h-15.08v84.82c4.89.02,9.78.04,14.67.05Z"/>
  <polygon class="cls-12" points="437.31 363.7 437.31 274.41 403.61 274.41 403.61 364.49 437.31 363.7"/>
  <polygon class="cls-12" points="1509 616.47 1509 532.39 1493.92 532.39 1493.92 617.21 1509 616.47"/>
  <path class="cls-12" d="M1509.47,448.16c-.16-28.27-.31-56.55-.47-84.82h-15.08v84.82h15.55Z"/>
  <polygon class="cls-12" points="618.95 711.31 618.95 694.48 439.5 694.48 439.5 711.45 618.95 711.31"/>
  <polygon class="cls-10" points="792.2 711.16 792.2 693.99 615.97 693.99 615.97 711.31 792.2 711.16"/>
  <path class="cls-12" d="M967.74,711.16v-17.17h-176.24v17.33c58.74-.05,117.49-.1,176.24-.15Z"/>
  <polygon class="cls-10" points="1143.97 711.06 1143.97 693.89 967.74 693.89 967.74 711.21 1143.97 711.06"/>
  <path class="cls-12" d="M1320.67,711.21c-.16-5.78-.31-11.55-.47-17.33h-176.24v17.33h176.7Z"/>
  <polygon class="cls-10" points="1496.44 711.3 1496.44 694.13 1320.21 694.13 1320.21 711.45 1496.44 711.3"/>
  <path class="cls-10" d="M439.5,711.31v-16.93h-34.17c-.12,5.69-.23,11.38-.35,17.08,11.5-.05,23.01-.09,34.51-.14Z"/>
  <path class="cls-10" d="M615.73,694.38v-84.82h-176.24v84.82h176.24Z"/>
  <path class="cls-12" d="M791.97,694.38v-84.82h-176.24v84.82h176.24Z"/>
  <path class="cls-10" d="M968.2,695.07v-85.51h-176.24v84.82c58.74.23,117.49.46,176.24.69Z"/>
  <polygon class="cls-12" points="1144.44 694.33 1144.44 610.25 968.2 610.25 968.2 695.07 1144.44 694.33"/>
  <polygon class="cls-10" points="1320.67 694.33 1320.67 610.25 1144.44 610.25 1144.44 695.07 1320.67 694.33"/>
  <path class="cls-12" d="M1496.58,695.07c.11-28.27.22-56.55.33-84.82h-176.24v84.82h175.91Z"/>
  <path class="cls-10" d="M1511.25,695.07c.14-28.27.27-56.55.41-84.82h-15.08v84.82h14.67Z"/>
  <path class="cls-12" d="M439.5,694.38v-84.82h-34.17v84.82h34.17Z"/>
  <polygon class="cls-12" points="1511.19 711.18 1511.19 694.01 1496.11 694.01 1496.11 711.33 1511.19 711.18"/>
  <polygon class="cls-10" points="71.92 279.9 71.92 195.82 0 195.82 0 280.64 71.92 279.9"/>
  <path class="cls-12" d="M248.34,280.64c-.16-28.27-.31-56.55-.47-84.82H71.64v84.82h176.7Z"/>
  <polygon class="cls-10" points="424.11 281.08 424.11 197 247.87 197 247.87 281.82 424.11 281.08"/>
  <polygon class="cls-12" points="72.18 196.26 72.18 112.18 0 112.18 0 197 72.18 196.26"/>
  <polygon class="cls-10" points="248.34 196.26 248.34 112.18 72.11 112.18 72.11 197 248.34 196.26"/>
  <path class="cls-12" d="M424.25,197c.11-28.27.22-56.55.33-84.82h-176.24v84.82h175.91Z"/>
  <path class="cls-10" d="M438.92,197c.14-28.27.27-56.55.41-84.82h-15.08v84.82h14.67Z"/>
  <path class="cls-10" d="M72.17,112.18c0-28.27.01-56.55.02-84.82H0v84.82h72.17Z"/>
  <path class="cls-12" d="M248.42,112.51c-.15-28.5-.29-57.01-.44-85.51H71.74c-.01,28.39-.03,56.79-.04,85.18,58.9.11,117.81.22,176.71.33Z"/>
  <path class="cls-10" d="M424.78,112.18c-.14-28.27-.27-56.55-.41-84.82h-176.24v84.82h176.64Z"/>
  <path class="cls-12" d="M72.18,28.62V0H0v28.62h72.18Z"/>
  <path class="cls-10" d="M248.34,28.62V0H72.11v28.62h176.24Z"/>
  <path class="cls-12" d="M424.25,27.31c.11-9.1.22-18.2.33-27.3h-176.24v27.3h175.91Z"/>
  <path class="cls-10" d="M438.92,27.36c.14-9.12.27-18.24.41-27.35h-15.08v27.34c4.89,0,9.78.01,14.67.02Z"/>
  <polygon class="cls-12" points="438.86 280.49 438.86 196.41 423.78 196.41 423.78 281.23 438.86 280.49"/>
  <path class="cls-12" d="M439.33,112.18c-.16-28.27-.31-56.55-.47-84.82h-15.08v84.82h15.55Z"/>
  <polygon class="cls-10" points="70.81 615.9 70.81 531.82 0 531.82 0 616.64 70.81 615.9"/>
  <path class="cls-12" d="M246.32,616.64c-.16-28.27-.31-56.55-.47-84.82H69.62v84.82h176.7Z"/>
  <polygon class="cls-10" points="422.09 617.08 422.09 533 245.86 533 245.86 617.82 422.09 617.08"/>
  <polygon class="cls-12" points="71.07 532.26 71.07 448.18 0 448.18 0 533 71.07 532.26"/>
  <polygon class="cls-10" points="246.32 532.26 246.32 448.18 70.09 448.18 70.09 533 246.32 532.26"/>
  <path class="cls-12" d="M422.23,533c.11-28.27.22-56.55.33-84.82h-176.24v84.82h175.91Z"/>
  <path class="cls-10" d="M436.9,533c.14-28.27.27-56.55.41-84.82h-15.08v84.82h14.67Z"/>
  <path class="cls-10" d="M71.05,448.18c0-28.27.01-56.55.02-84.82H0v84.82h71.05Z"/>
  <path class="cls-12" d="M246.4,448.51c-.15-28.5-.29-57.01-.44-85.51H69.72c-.01,28.39-.03,56.79-.04,85.18,58.9.11,117.81.22,176.71.33Z"/>
  <path class="cls-10" d="M422.76,448.18c-.14-28.27-.27-56.55-.41-84.82h-176.24v84.82h176.64Z"/>
  <path class="cls-12" d="M71.07,363.3v-84.82H0v84.82h71.07Z"/>
  <path class="cls-10" d="M246.32,363.3v-84.82H70.09v84.82h176.24Z"/>
  <path class="cls-12" d="M422.23,363.3c.11-28.27.22-56.55.33-84.82h-176.24v84.82h175.91Z"/>
  <path class="cls-10" d="M436.9,363.36c.14-28.29.27-56.58.41-84.87h-15.08v84.82c4.89.02,9.78.04,14.67.05Z"/>
  <polygon class="cls-12" points="436.84 616.49 436.84 532.41 421.76 532.41 421.76 617.23 436.84 616.49"/>
  <path class="cls-12" d="M437.31,448.18c-.16-28.27-.31-56.55-.47-84.82h-15.08v84.82h15.55Z"/>
  <path class="cls-12" d="M248.51,711.23c-.16-5.78-.31-11.55-.47-17.33H71.81v17.33h176.7Z"/>
  <polygon class="cls-10" points="424.28 711.32 424.28 694.15 248.05 694.15 248.05 711.47 424.28 711.32"/>
  <polygon class="cls-12" points="72.28 699.29 72.28 610.26 0 610.26 0 700.07 72.28 699.29"/>
  <polygon class="cls-10" points="248.51 694.34 248.51 610.26 72.28 610.26 72.28 695.08 248.51 694.34"/>
  <path class="cls-12" d="M424.42,695.08c.11-28.27.22-56.55.33-84.82h-176.24v84.82h175.91Z"/>
  <path class="cls-10" d="M439.09,695.08c.14-28.27.27-56.55.41-84.82h-15.08v84.82h14.67Z"/>
  <polygon class="cls-12" points="439.03 711.2 439.03 694.03 423.95 694.03 423.95 711.35 439.03 711.2"/>
  <polygon class="cls-12" points="1709.67 282.73 1709.67 197.2 1530.23 197.2 1530.23 283.49 1709.67 282.73"/>
  <polygon class="cls-10" points="1882.93 281.18 1882.93 197.1 1706.7 197.1 1706.7 281.92 1882.93 281.18"/>
  <path class="cls-12" d="M1920,281.18v-84.08h-37.77v84.82c12.59-.25,25.18-.49,37.77-.74Z"/>
  <path class="cls-10" d="M1530.23,283.49v-86.39h-34.17c-.12,29.04-.23,58.08-.35,87.11,11.5-.24,23.01-.48,34.51-.72Z"/>
  <path class="cls-10" d="M1706.46,197.1v-84.82h-176.24v84.82h176.24Z"/>
  <path class="cls-12" d="M1882.7,197.1v-84.82h-176.24v84.82h176.24Z"/>
  <path class="cls-10" d="M1920,197.78v-85.51h-38.75v84.82c12.92.23,25.83.46,38.75.69Z"/>
  <path class="cls-12" d="M1530.23,197.1v-84.82h-34.17v84.82h34.17Z"/>
  <path class="cls-12" d="M1706.46,112.96V28.15h-176.24v84.82h176.24Z"/>
  <polygon class="cls-10" points="1882.7 112.22 1882.7 28.15 1706.46 28.15 1706.46 112.96 1882.7 112.22"/>
  <path class="cls-12" d="M1920,112.28V27.46h-38.75v84.82h38.75Z"/>
  <path class="cls-10" d="M1530.69,112.95c-.09-28.27-.19-56.53-.28-84.8-11.29.38-22.59.77-33.88,1.15-.16,27.66-.31,55.32-.47,82.98,11.55.22,23.09.45,34.63.67Z"/>
  <path class="cls-10" d="M1706.46,28.89V.27h-176.24v28.62h176.24Z"/>
  <path class="cls-12" d="M1882.7,28.89V.27h-176.24v28.62h176.24Z"/>
  <polygon class="cls-10" points="1920 28.64 1920 .27 1881.25 .27 1881.25 28.89 1920 28.64"/>
  <polygon class="cls-12" points="1530.23 29.04 1530.23 0 1496.53 0 1496.53 29.29 1530.23 29.04"/>
  <polygon class="cls-12" points="1707.66 618.73 1707.66 533.19 1528.21 533.19 1528.21 619.48 1707.66 618.73"/>
  <polygon class="cls-10" points="1880.91 617.17 1880.91 533.1 1704.68 533.1 1704.68 617.91 1880.91 617.17"/>
  <path class="cls-12" d="M1920,617.17v-84.08h-39.79v84.82c13.26-.25,26.53-.49,39.79-.74Z"/>
  <path class="cls-10" d="M1528.21,619.48v-86.39h-34.17c-.12,29.04-.23,58.08-.35,87.11,11.5-.24,23.01-.48,34.51-.72Z"/>
  <path class="cls-10" d="M1704.44,533.1v-84.82h-176.24v84.82h176.24Z"/>
  <path class="cls-12" d="M1880.68,533.1v-84.82h-176.24v84.82h176.24Z"/>
  <path class="cls-10" d="M1920,533.78v-85.51h-39.32v84.82c13.11.23,26.21.46,39.32.69Z"/>
  <path class="cls-12" d="M1528.21,533.1v-84.82h-34.17v84.82h34.17Z"/>
  <path class="cls-12" d="M1704.44,448.96v-84.82h-176.24v84.82h176.24Z"/>
  <polygon class="cls-10" points="1880.68 448.22 1880.68 364.14 1704.44 364.14 1704.44 448.96 1880.68 448.22"/>
  <path class="cls-12" d="M1920,448.28v-84.82h-39.59v84.82h39.59Z"/>
  <path class="cls-10" d="M1528.68,448.95c-.09-28.27-.19-56.53-.28-84.8-11.29.38-22.59.77-33.88,1.15-.16,27.66-.31,55.32-.47,82.98,11.54.22,23.09.45,34.63.67Z"/>
  <path class="cls-10" d="M1704.44,364.09v-84.82h-176.24v84.82h176.24Z"/>
  <path class="cls-12" d="M1880.68,364.09v-84.82h-176.24v84.82h176.24Z"/>
  <polygon class="cls-10" points="1920 363.35 1920 279.27 1880.41 279.27 1880.41 364.09 1920 363.35"/>
  <polygon class="cls-12" points="1528.21 364.51 1528.21 275.21 1494.51 275.21 1494.51 365.29 1528.21 364.51"/>
  <polygon class="cls-12" points="1709.85 712.11 1709.85 695.28 1530.4 695.28 1530.4 712.26 1709.85 712.11"/>
  <polygon class="cls-10" points="1883.1 711.97 1883.1 694.79 1706.87 694.79 1706.87 712.12 1883.1 711.97"/>
  <path class="cls-10" d="M1530.4,712.12v-16.93h-34.17c-.12,5.69-.23,11.38-.35,17.08,11.5-.05,23.01-.09,34.51-.14Z"/>
  <path class="cls-10" d="M1706.63,695.18v-84.82h-176.24v84.82h176.24Z"/>
  <path class="cls-12" d="M1882.87,695.18v-84.82h-176.24v84.82h176.24Z"/>
  <path class="cls-10" d="M1920,695.87v-85.51h-38.67v84.82c12.89.23,25.78.46,38.67.69Z"/>
  <path class="cls-12" d="M1530.4,695.18v-84.82h-34.17v84.82h34.17Z"/>
  <rect class="cls-8" y="695.07" width="1920" height="386.28"/>
  <ellipse class="cls-6" cx="1530.4" cy="724.71" rx="365.08" ry="62.55"/>
  <polygon class="cls-9" points="1081.87 247.15 1081.87 113.02 983.27 113.02 983.27 312.44 1081.87 312.44 1081.87 247.15"/>
  <polygon class="cls-16" points="1180.47 247.15 1180.47 113.02 1081.87 113.02 1081.87 312.44 1180.47 312.44 1180.47 247.15"/>
  <polygon class="cls-7" points="1279.07 247.15 1279.07 113.02 1180.47 113.02 1180.47 312.44 1279.07 312.44 1279.07 247.15"/>
  <path class="cls-19" d="M1471.64,230.71h141.64l-10.94,116.82c1.37-1.95-95.98.65-119.45,0l-11.25-116.82Z"/>
  <path class="cls-19" d="M1205.75,744.58c-3.79-18.7-32.31-172.51,73.92-291.73,65.27-73.25,146.76-94.54,178.26-101.02,43.89-8.86,113.32-15.97,192.29,5.76,39.86,10.97,95.69,26.32,144.87,77,51.05,52.6,65.95,113.38,70.87,140.82,3.61,19.52,6.63,40.81,8.59,63.69,3.29,38.42,2.89,73.35.72,103.77-223.17.57-446.34,1.14-669.51,1.71Z"/>
  <path class="cls-19" d="M1371.95,540.47c-25.14,34.76-30.83,70.19-32.42,87.52l3.9,116.24,411.03-1.05v-119.31c-.23-12.72-2.15-31.7-10.87-52.4-23.81-56.53-78.56-78.83-95.85-85.88-33.79-13.77-60.9-13.93-100.11-14.17-44.72-.28-93.27-.58-137.4,30.73-5.85,4.15-22.65,16.68-38.3,38.32Z"/>
  <path class="cls-17" d="M1411.11,672.16c1.55-27.63,3.07-62.75,24.23-84.9,23.32-24.43,57.95-26.45,90.76-28.36,7.99-.47,14.1-.34,22.09-.17,29.57.62,51.22,1.08,74.41,10.36,12.04,4.82,28.54,11.43,41.71,28.52,14.03,18.19,16.29,37.92,16.73,46.9v34.96l-270.25,3.06c0-2.69.06-5.76.32-10.37Z"/>
  <line class="cls-19" x1="1341.39" y1="683.32" x2="1754.61" y2="678.63"/>
  <line class="cls-19" x1="1368.01" y1="383.95" x2="1734.97" y2="389.1"/>
  <line class="cls-19" x1="1264.47" y1="471.32" x2="1824.65" y2="471.32"/>
  <line class="cls-19" x1="1218.2" y1="558.66" x2="1359.19" y2="558.66"/>
  <line class="cls-19" x1="1199.87" y1="658.15" x2="1339.27" y2="662.16"/>
  <line class="cls-19" x1="1754.61" y1="662.16" x2="1876.11" y2="662.16"/>
  <path class="cls-19" d="M1368.73,471.32s-30,54.11-22.9,87.34"/>
  <path class="cls-19" d="M1475.8,385.46s-45,47.13-45,84.8"/>
  <path class="cls-19" d="M1297.15,471.32s55.18-84.31,68.58-85.86"/>
  <path class="cls-19" d="M1626.39,387.57s38.41,45.29,36.04,83.75"/>
  <path class="cls-19" d="M1292.14,558.66s-11.05,52.84-12.63,99.48"/>
  <line class="cls-19" x1="1231.35" y1="660.15" x2="1231.35" y2="744.23"/>
  <line class="cls-19" x1="1443.73" y1="682.16" x2="1443.73" y2="743.97"/>
  <line class="cls-19" x1="1546.54" y1="680.99" x2="1546.54" y2="743.97"/>
  <line class="cls-19" x1="1652.17" y1="679.8" x2="1652.17" y2="743.44"/>
  <line class="cls-19" x1="1845.6" y1="662.16" x2="1845.6" y2="742.94"/>
  <path class="cls-19" d="M1791.91,565.1s21.32,43.37,17.37,97.06"/>
  <path class="cls-19" d="M1722.44,471.32s29.91,49.61,18.11,93.77h123.37"/>
  <line class="cls-19" x1="1546.94" y1="386.52" x2="1546.54" y2="343.23"/>
  <line class="cls-19" x1="1439.33" y1="485.6" x2="1478.95" y2="565.1"/>
  <line class="cls-19" x1="1367.88" y1="545.81" x2="1429.52" y2="593.46"/>
  <line class="cls-19" x1="1413.4" y1="642.64" x2="1339.27" y2="630.95"/>
  <line class="cls-19" x1="1681.04" y1="644.51" x2="1754.46" y2="623.87"/>
  <line class="cls-19" x1="1664.71" y1="598.15" x2="1730.67" y2="548.56"/>
  <line class="cls-19" x1="1611.06" y1="564.52" x2="1647.74" y2="485.6"/>
  <line class="cls-19" x1="1544.56" y1="471.32" x2="1544.56" y2="558.66"/>
  <path class="cls-19" d="M1787.48,471.32s-22.2-58.49-60.73-82.22"/>
  <polygon class="cls-18" points="585.91 660.15 465.18 787.82 1394.21 787.82 1272.92 660.15 585.91 660.15"/>
  <rect class="cls-18" x="465.18" y="787.82" width="929.03" height="17.05"/>
  <path class="cls-18" d="M479.82,846.92v-42.05h898.93v42.05H479.82Z"/>
  <path class="cls-18" d="M501.32,1080.25h31.26c.02-77.78.04-155.55.06-233.33h-31.32c0,77.78,0,155.55,0,233.33Z"/>
  <path class="cls-18" d="M555.22,1079.82c-7.22.13-14.44.27-21.66.4-.31-77.77-.62-155.54-.93-233.31,7.53.57,15.06,1.15,22.58,1.72v231.18Z"/>
  <polygon class="cls-18" points="583.61 1080.25 608.17 1080.25 608.17 849.2 582.33 849.2 583.61 1080.25"/>
  <path class="cls-18" d="M622.52,1080.06c-4.78.06-9.57.12-14.35.18v-231.04h14.35v230.86Z"/>
  <path class="cls-18" d="M1249.89,1080.25h25.03c-.01-77.78-.03-155.55-.04-233.33h-24.82c-.06,77.78-.11,155.55-.17,233.33Z"/>
  <path class="cls-18" d="M1235.85,1080.25h14.04c.06-77.78.11-155.55.17-233.33h-13.91c-.1,77.78-.2,155.55-.31,233.33Z"/>
  <path class="cls-18" d="M1327.94,1080.25h28.98c-.03-77.78-.06-155.55-.1-233.33h-30.7c.6,77.78,1.21,155.55,1.81,233.33Z"/>
  <path class="cls-18" d="M1302.39,1080.25h25.55c-.6-77.78-1.21-155.55-1.81-233.33-7.74.58-15.48,1.16-23.22,1.74-.17,77.2-.35,154.39-.52,231.59Z"/>
  <path class="cls-3" d="M657.27,704.57c25.93-14.71,53.53-18.49,85.57-23.99,49.92-8.56,39.48-9.08,59.65-11.32,36.83-4.09,68.21-1.98,111.66.95,20.88,1.4,36.26,3.04,60.72,1.82,19.7-.98,24.82-2.79,40.76-4.19,41.55-3.65,75.02,2.66,96.78,6.76,46.04,8.68,66.76,20.59,73.22,24.53,19.21,11.7,20.78,18.98,20.89,22.39.35,11.25-14.07,19.71-26.57,27.04-25.26,14.82-50.84,19.73-54.41,20.38-52.27,9.6-73.95-5.25-135.63-5.63-56.37-.35-51.19,11.96-130.97,15.12-42.45,1.68-68.63-.83-105.37-4.35-48.9-4.68-67.2-10.23-82.32-19.57-4.09-2.53-33.89-21.36-27.22-37.97,1.82-4.53,5.9-7.8,13.27-11.98Z"/>
  <path class="cls-5" d="M708.79,698.87c26.77-10.58,40.31-7.85,95.75-18.78,28.72-5.66,24.31-6.24,35.27-7.38,23.15-2.4,30.69,1.44,89.25,6.3,16.97,1.41,29.4,2.17,45.41,1.36,12.56-.63,19.77-1.84,30.49-3.13,13.98-1.68,40.53-4.87,64.82-3.86,36.21,1.5,62.33,12.12,82,20.12,20.43,8.31,41.58,16.91,39.86,25.15-2.07,9.88-34.5,7.37-53.14,26.49-2.84,2.91-6.45,7.45-14.2,10.06-8.09,2.73-15.04,1.46-24.74,1.01-16.01-.75-23.56,1.48-35.27,2.35-29.87,2.21-45.77-7.44-78.56-9.9-34.53-2.59-33.89,6.84-97.96,11.31-12.1.84-6.66.13-64.9,1.61-67.93,1.73-75.64,2.71-91.62-1.01-25.92-6.04-59.74-21.22-58.18-36.88,1.11-11.13,19.67-18.47,35.73-24.81Z"/>
  <polygon class="cls-21" points="230.19 171.4 672.04 163.87 670.92 432.52 230.19 438.08 230.19 171.4"/>
  <polygon class="cls-20" points="211.36 171.4 205.82 451.29 230.19 438.08 230.19 171.4 211.36 171.4"/>
  <path class="cls-20" d="M672.04,163.87c8.31-.13,16.63-.26,24.94-.39v287.81c-8.69-6.25-17.38-12.51-26.07-18.76.38-89.55.75-179.1,1.13-268.65Z"/>
  <path class="cls-20" d="M205.82,451.29h491.17l-26.07-18.76-440.73,5.56c-8.12,4.4-16.24,8.8-24.37,13.2Z"/>
  <path class="cls-20" d="M187.07,138.19l24.29,33.21c161.87-2.64,323.75-5.28,485.62-7.92,6.54-12.81,13.09-25.62,19.63-38.43-11.41-3.9-28.5-9.58-49.45-15.93-45.15-13.69-50.5-13.01-84.89-23.79-19.78-6.2-40.45-13.53-81.78-28.17-35.37-12.53-38.42-14.03-47.15-13.87-9.19.17-15.61,1.65-71.72,20.23-10.78,3.57-7.67,2.42-17.77,5.77-10.66,3.54-45.63,15.26-93.16,33.94-23.57,9.26-51.82,20.86-83.62,34.96Z"/>
  <path class="cls-21" d="M282.77,144.18c15.53-12.73,37.4-27.7,65.89-39.36,57.22-23.43,109.14-20.46,135.99-16.91,17.31,1.26,39.55,4.56,64.3,12.71,32.16,10.6,56.55,25.43,72.89,37.26-113.02,2.1-226.04,4.2-339.06,6.3Z"/>
  <rect class="cls-20" x="239.95" y="295.8" width="419.45" height="23.08"/>
  <polygon class="cls-20" points="659.4 183.53 239.95 187.59 239.95 171.4 659.4 163.99 659.4 183.53"/>
  <path class="cls-2" d="M326.45,209.31l-10.81,42.39-1.37,4.63s14.53-2.06,18.46,15.1c0,0,26.53-21.59,24.22-53.24,0,0-18.23-8.77-18.92-11.28h-9.92l-1.67,2.41Z"/>
  <path class="cls-14" d="M350.83,216.01s-2.68,29.04-21.72,46.99c0,0,3.34,4.42,3.62,8.43,0,0,27.16-19.9,24.22-53.24l-6.13-2.17Z"/>
  <path class="cls-15" d="M332.71,180.31s-6.65,15.9-5.12,25.04l.52,1.54h9.92s2.36-22.52,5.94-25.06l-2.73-1.52h-8.53Z"/>
  <path class="cls-11" d="M410.05,175.79s.08,1.6-.26,4.53c-.4,3.44-1.38,8.71-3.75,15.36,0,0-2.29,24.42,1.15,29.34,0,0,2.48,5.87,7.63,6.63l-1.53,22.9s-.38,4.92-4.01,5.49c0,0-22.52-.95-24.81-3.79l9.54-25.55s5.53-.38,5.63-9.84c0,0-5.06-9.6,3.72-40.54l6.68-4.53Z"/>
  <line class="cls-22" x1="396.74" y1="233.32" x2="391.02" y2="254.33"/>
  <line class="cls-22" x1="402.37" y1="234.32" x2="398.84" y2="255.8"/>
  <line class="cls-22" x1="407.84" y1="235" x2="406.15" y2="256.69"/>
  <path class="cls-4" d="M400.84,354.43s-22.67,23.92.9,49.8c0,0,27.17,27.84,53.45-1.78,0,0,18.36-27.31-3.96-49.44,0,0-24.65-21.95-50.39,1.43Z"/>
  <path class="cls-13" d="M430.17,353.54s-29.33-4.45-26.81,26.34c0,0-1.08,33.99,34.73,24,0,0,24.17-10.22,13.32-33.74,0,0-6.3-15.17-21.24-16.6Z"/>
  <path class="cls-4" d="M431.79,341.58s-4.27-29.04-2.34-36.06c0,0-3.6-12.49-12.42-1.96,0,0-4.32,4.15-1.26,40.09l.23,1.64c.97.6,4.06,2.37,8.29,1.99,3.99-.36,6.61-2.41,7.49-3.17v-2.52Z"/>
  <path class="cls-1" d="M422.08,312.33s3.51-2.08,1.96-7.47c0,0-2.43-3.03-4.55,1.17,0,0-2.98,7.31,2.59,6.3Z"/>
  <path class="cls-4" d="M280.67,354.55s-22.67,23.92.9,49.8c0,0,27.17,27.84,53.45-1.78,0,0,18.36-27.31-3.96-49.44,0,0-24.65-21.95-50.39,1.43Z"/>
  <path class="cls-13" d="M310.01,353.65s-29.33-4.45-26.81,26.34c0,0-1.08,33.99,34.73,24,0,0,24.17-10.22,13.32-33.74,0,0-6.3-15.17-21.24-16.6Z"/>
  <path class="cls-4" d="M311.63,341.69s-4.27-29.04-2.34-36.06c0,0-3.6-12.49-12.42-1.96,0,0-4.32,4.15-1.26,40.09l.23,1.64c2.35.12,5.01.12,7.92-.1,2.92-.22,5.56-.62,7.87-1.09v-2.52Z"/>
  <path class="cls-1" d="M301.91,312.45s3.51-2.08,1.96-7.47c0,0-2.43-3.03-4.55,1.17,0,0-2.98,7.31,2.59,6.3Z"/>
  <path class="cls-4" d="M507.48,348.49s-17.38,18.33.69,38.17c0,0,20.83,21.34,40.96-1.37,0,0,14.07-20.93-3.03-37.89,0,0-18.89-16.83-38.62,1.09Z"/>
  <path class="cls-13" d="M529.96,347.81s-22.48-3.41-20.55,20.18c0,0-.83,26.05,26.62,18.39,0,0,18.52-7.83,10.21-25.85,0,0-4.83-11.63-16.27-12.72Z"/>
  <path class="cls-4" d="M531.2,338.64s-3.27-22.26-1.79-27.63c0,0-2.76-9.58-9.52-1.5,0,0-3.31,3.18-.97,30.73l.18,1.25c2.12-.12,4.27-.27,6.45-.44,1.91-.15,3.79-.3,5.65-.47v-1.94Z"/>
  <path class="cls-1" d="M523.76,316.23s2.69-1.59,1.5-5.72c0,0-1.86-2.32-3.49.89,0,0-2.28,5.6,1.98,4.83Z"/>
</svg>