<?xml version="1.0" encoding="UTF-8"?>
<svg xmlns="http://www.w3.org/2000/svg" viewBox="0 0 1920 1080.69">
  <defs>
    <style>
      .cls-1 {
        fill: #827f7f;
      }

      .cls-1, .cls-2, .cls-3, .cls-4, .cls-5, .cls-6, .cls-7, .cls-8, .cls-9, .cls-10, .cls-11, .cls-12, .cls-13, .cls-14, .cls-15, .cls-16, .cls-17, .cls-18, .cls-19, .cls-20 {
        stroke-width: 0px;
      }

      .cls-21 {
        stroke: #757576;
      }

      .cls-21, .cls-22, .cls-23, .cls-24, .cls-25, .cls-26, .cls-27, .cls-28, .cls-29, .cls-30, .cls-31, .cls-32, .cls-33 {
        stroke-miterlimit: 10;
      }

      .cls-21, .cls-13 {
        fill: #f4f4f5;
      }

      .cls-34 {
        font-family: MarkerFelt-Wide, 'Marker Felt';
        font-size: 107.68px;
      }

      .cls-34, .cls-27 {
        fill: #010101;
      }

      .cls-35 {
        letter-spacing: -.04em;
      }

      .cls-2 {
        fill: #ce2029;
      }

      .cls-22 {
        fill: #f3f0f0;
      }

      .cls-22, .cls-24, .cls-28, .cls-31 {
        stroke: #cfcfce;
      }

      .cls-36 {
        fill: #231f20;
        font-family: Helvetica-BoldOblique, Helvetica;
        font-size: 22.73px;
        font-style: oblique;
        font-weight: 700;
      }

      .cls-3, .cls-23, .cls-28, .cls-32 {
        fill: none;
      }

      .cls-4 {
        fill: #c4c4c4;
      }

      .cls-5 {
        fill: #4c2c2c;
      }

      .cls-6 {
        fill: #cccccb;
      }

      .cls-7 {
        fill: #faf8d1;
      }

      .cls-37 {
        letter-spacing: -.02em;
      }

      .cls-38 {
        letter-spacing: .03em;
      }

      .cls-8 {
        fill: #bfbfbf;
      }

      .cls-23 {
        stroke: #4f3838;
      }

      .cls-9 {
        fill: #a7c2e6;
      }

      .cls-10 {
        fill: #bc2131;
      }

      .cls-39 {
        letter-spacing: 0em;
      }

      .cls-40 {
        letter-spacing: .04em;
      }

      .cls-11 {
        fill: #513737;
      }

      .cls-41 {
        letter-spacing: -.05em;
      }

      .cls-42 {
        letter-spacing: 0em;
      }

      .cls-12 {
        fill: #543434;
      }

      .cls-43 {
        letter-spacing: .03em;
      }

      .cls-14 {
        fill: #ef363e;
      }

      .cls-24 {
        fill: #cfcfce;
      }

      .cls-44 {
        letter-spacing: .03em;
      }

      .cls-25 {
        fill: #f8ddc7;
        stroke: #f8ddc7;
      }

      .cls-15 {
        fill: #71a36a;
      }

      .cls-26 {
        fill: #ee3331;
      }

      .cls-26, .cls-27, .cls-32 {
        stroke: #010101;
      }

      .cls-16 {
        fill: #ed3736;
      }

      .cls-29 {
        fill: #f7c7d0;
        stroke: #f7c7d0;
      }

      .cls-30 {
        fill: #ee3432;
        stroke: #db2c29;
        stroke-width: 4px;
      }

      .cls-31 {
        fill: #f3f3f3;
      }

      .cls-17 {
        fill: #5b3f3e;
      }

      .cls-18 {
        fill: #fbe18d;
      }

      .cls-45 {
        letter-spacing: .04em;
      }

      .cls-19 {
        fill: #f7f8f8;
      }

      .cls-33 {
        fill: #f4f4f4;
        stroke: #f4f4f4;
      }

      .cls-20 {
        fill: #707071;
      }
    </style>
  </defs>
  <g id="Layer_7" data-name="Layer 7">
    <path class="cls-15" d="M.33,934.53c639.78-11.14,1279.56-22.27,1919.34-33.41v107.36c-639.78,1.06-1279.56,2.13-1919.34,3.19v-77.14Z"/>
    <path class="cls-9" d="M.33,0v546.62c639.78-16.63,1279.56-33.26,1919.34-49.9V0H.33Z"/>
    <path class="cls-8" d="M1919.67,1080.69v-72.5c-639.78-1.64-1279.56-3.28-1919.34-4.92v77.42h1919.34Z"/>
  </g>
  <g id="Layer_2" data-name="Layer 2">
    <path class="cls-6" d="M.33,96.64h421.43v859.92c-140.48-1.08-280.95-2.16-421.43-3.24V96.64Z"/>
    <path class="cls-6" d="M1498.24,96.64c140.42-.12,280.83-.24,421.25-.35.06,286.76.12,573.51.18,860.27h-421.43V96.64Z"/>
    <polygon class="cls-5" points="444.03 506.81 421.76 506.81 421.76 956.56 1498.24 956.56 1498.24 506.81 1475.97 506.81 1475.97 534.65 444.03 534.65 444.03 506.81"/>
    <rect class="cls-17" x="768.53" y="710.7" width="382.93" height="244.16"/>
    <rect class="cls-3" x="960" y="748.75" width="191.47" height="206.11"/>
    <rect class="cls-18" x="979.38" y="759.53" width="71.95" height="73.25"/>
    <rect class="cls-18" x="1060.87" y="759.53" width="71.21" height="73.25"/>
    <rect class="cls-18" x="979.38" y="845.77" width="71.95" height="73.25"/>
    <rect class="cls-18" x="1060.87" y="845.77" width="71.21" height="73.25"/>
    <rect class="cls-18" x="787.92" y="760.08" width="71.95" height="73.25"/>
    <rect class="cls-18" x="869.41" y="760.08" width="71.21" height="73.25"/>
    <rect class="cls-18" x="787.92" y="846.31" width="71.95" height="73.25"/>
    <rect class="cls-18" x="869.41" y="846.31" width="71.21" height="73.25"/>
    <path class="cls-14" d="M766.69,956.56c-26.88,41.38-53.75,82.75-80.63,124.13h547.88c-28.11-41.38-56.21-82.75-84.32-124.13h-382.93Z"/>
    <rect class="cls-18" x="460.85" y="699.9" width="281.21" height="202.71"/>
    <rect class="cls-18" x="1184.25" y="699.9" width="281.21" height="202.71"/>
    <rect class="cls-7" x="1553.27" y="191.71" width="142.82" height="125.63"/>
    <rect class="cls-7" x="1751.12" y="191.71" width="142.82" height="125.63"/>
    <rect class="cls-7" x="1553.27" y="369.45" width="142.82" height="125.63"/>
    <rect class="cls-7" x="1751.12" y="369.45" width="142.82" height="125.63"/>
    <rect class="cls-7" x="1546.99" y="547.18" width="142.82" height="125.63"/>
    <rect class="cls-7" x="1744.84" y="547.18" width="142.82" height="125.63"/>
    <rect class="cls-7" x="26.07" y="191.71" width="142.82" height="125.63"/>
    <rect class="cls-7" x="223.91" y="191.71" width="142.82" height="125.63"/>
    <rect class="cls-7" x="26.07" y="369.45" width="142.82" height="125.63"/>
    <rect class="cls-7" x="223.91" y="369.45" width="142.82" height="125.63"/>
    <rect class="cls-7" x="19.79" y="547.18" width="142.82" height="125.63"/>
    <rect class="cls-7" x="217.63" y="547.18" width="142.82" height="125.63"/>
    <rect class="cls-1" x="37.94" y="780.46" width="329.46" height="177.33"/>
    <rect class="cls-1" x="202.67" y="780.46" width="164.73" height="177.33"/>
    <ellipse class="cls-32" cx="207.21" cy="875.91" rx="4.53" ry="3.63"/>
    <ellipse class="cls-32" cx="197.33" cy="875.91" rx="4.53" ry="3.63"/>
    <rect class="cls-1" x="1552.6" y="780.46" width="329.46" height="177.33"/>
    <rect class="cls-1" x="1717.33" y="780.46" width="164.73" height="177.33"/>
    <ellipse class="cls-32" cx="1721.86" cy="875.91" rx="4.53" ry="3.63"/>
    <ellipse class="cls-32" cx="1711.99" cy="875.91" rx="4.53" ry="3.63"/>
    <rect class="cls-5" x="421.76" y="305.16" width="1076.48" height="201.65"/>
    <path class="cls-12" d="M421.76,305.16c57.25-38.07,114.49-76.13,171.74-114.2,246.4.25,492.81.5,739.21.76l165.53,113.44H421.76Z"/>
    <path class="cls-13" d="M.33,96.64c74.48-22.76,148.96-45.52,223.44-68.28h369.13c-57.05,22.76-114.1,45.52-171.14,68.28H.33Z"/>
    <path class="cls-13" d="M1498.24,96.64c-56.57-20.53-113.14-41.06-169.71-61.58,134.66,1.81,269.33,3.62,403.99,5.43,62.32,18.6,124.65,37.2,186.97,55.8-140.42.12-280.83.24-421.25.35Z"/>
    <path class="cls-20" d="M367.4,957.79l-49.1,122.89H.33c-.09-8.75-.18-17.5-.27-26.25.05-10.5.17-18.53.27-23.97.05-2.86.04-5.78.03-9.15,0-2.15,0-2.26-.02-6.3-.03-10.72.02-9.8,0-10.14-.24-4.58-.7-5.38.14-7.23.79-1.76,1.72-2.19,4.58-4.97,3.54-3.45,3.15-3.8,8.14-9.2,3.01-3.27,2.86-2.82,6.18-6.33,5.57-5.9,6.36-7.55,10.78-12.09,1.68-1.72,4.28-4.28,7.8-7.26h329.46Z"/>
    <line class="cls-21" x1="202.67" y1="780.46" x2="202.67" y2="957.79"/>
    <line class="cls-21" x1="1724.5" y1="780.46" x2="1724.5" y2="957.79"/>
    <line class="cls-23" x1="959.06" y1="710.7" x2="959.06" y2="954.86"/>
    <ellipse class="cls-32" cx="965.27" cy="842.12" rx="5.27" ry="4.99"/>
    <ellipse class="cls-32" cx="953.79" cy="842.12" rx="5.27" ry="4.99"/>
    <path class="cls-11" d="M768.53,734.16v10.92c127.64-.11,255.29-.22,382.93-.33v-10.59h-382.93Z"/>
    <path class="cls-4" d="M1498.24,96.64c-56.57-20.53-113.14-41.06-169.71-61.58,1.39,52.22,2.79,104.44,4.18,156.65l165.53,113.44V96.64Z"/>
    <polygon class="cls-4" points="421.76 96.64 592.9 28.36 593.5 190.96 421.76 305.16 421.76 96.64"/>
    <path class="cls-10" d="M741.32,734.16c8.14-19.81,23.06-47.92,50.68-74.01,64.34-60.76,147.88-63.59,169.4-63.7.02,45.9.04,91.81.05,137.71h-220.14Z"/>
    <path class="cls-10" d="M1181.6,734.16c-8.14-19.82-23.06-47.93-50.68-74.01-64.38-60.8-148-63.59-169.51-63.7.02,45.9.04,91.81.05,137.71h220.14Z"/>
    <path class="cls-2" d="M760.04,734.16c7.44-18.13,21.1-43.85,46.37-67.71,58.87-55.59,135.3-58.18,154.99-58.28.02,42,.03,84,.05,125.99h-201.41Z"/>
    <path class="cls-2" d="M1162.87,734.16c-7.44-18.13-21.1-43.85-46.37-67.71-58.9-55.62-135.41-58.18-155.09-58.28.02,42,.03,84,.05,125.99h201.41Z"/>
    <path class="cls-20" d="M1552.6,957.18l49.1,123.51h317.97c.09-8.79.18-17.59.27-26.38-.05-10.55-.17-18.62-.27-24.09-.05-2.87-.04-5.81-.03-9.2,0-2.16,0-2.28.02-6.33.03-10.78-.02-9.85,0-10.19.24-4.6.7-5.4-.14-7.27-.79-1.77-1.72-2.2-4.58-4.99-3.54-3.46-3.15-3.82-8.14-9.25-3.01-3.28-2.86-2.83-6.18-6.37-5.57-5.93-6.36-7.59-10.78-12.15-1.68-1.73-4.28-4.3-7.8-7.3-109.82,0-219.64,0-329.46,0Z"/>
  </g>
  <g id="Layer_3" data-name="Layer 3">
    <path class="cls-16" d="M593.93,699.9s-32.61,119.95-84.34,121.45c0,0,14.62,60.41,36.55,78.84l2.85,2.42h-88.13v-202.71h133.08"/>
    <path class="cls-16" d="M608.99,699.9s32.61,119.95,84.34,121.45c0,0-14.62,60.41-36.55,78.84l-2.85,2.42h88.13s0-202.71,0-202.71h-133.08"/>
    <path class="cls-16" d="M1317.33,699.9s-32.61,119.95-84.34,121.45c0,0,14.62,60.41,36.55,78.84l2.85,2.42h-88.13v-202.71h133.08"/>
    <path class="cls-16" d="M1332.71,699.9s32.61,119.95,84.34,121.45c0,0-14.62,60.41-36.55,78.84l-2.85,2.42h88.13s0-202.71,0-202.71h-133.08"/>
  </g>
  <g id="Layer_4" data-name="Layer 4">
    <path class="cls-17" d="M593.93,699.9v101.36h-133.08v9.4h133.08v91.95h15.05v-92.11l133.08.49v-8.63c-44.4-.3-88.81-.6-133.21-.9-.32-33.85-.64-67.7-.96-101.56h-13.97Z"/>
    <path class="cls-17" d="M1317.74,699.9v101.36h-133.49v9.4h133.49v91.95h15.1v-92.11l133.49.49v-8.63c-44.54-.3-89.08-.6-133.62-.9-.32-33.85-.64-67.7-.96-101.56h-14.01Z"/>
    <path class="cls-17" d="M821.96,760.08v36.62h-34.05v3.4h34.05v33.23h3.85v-33.28l34.05.18v-3.12c-11.36-.11-22.72-.22-34.08-.33-.08-12.23-.16-24.46-.24-36.7h-3.57Z"/>
    <path class="cls-17" d="M821.96,846.31v36.62h-34.05v3.4h34.05v33.23h3.85v-33.28l34.05.18v-3.12c-11.36-.11-22.72-.22-34.08-.33-.08-12.23-.16-24.46-.24-36.7h-3.57Z"/>
    <path class="cls-17" d="M903.11,760.08v36.62h-33.7v3.4h33.7v33.23h3.81v-33.28l33.7.18v-3.12c-11.24-.11-22.49-.22-33.73-.33-.08-12.23-.16-24.46-.24-36.7h-3.54Z"/>
    <path class="cls-17" d="M903.11,846.31v36.62h-33.7v3.4h33.7v33.23h3.81v-33.28l33.7.18v-3.12c-11.24-.11-22.49-.22-33.73-.33-.08-12.23-.16-24.46-.24-36.7h-3.54Z"/>
    <path class="cls-17" d="M1013.43,845.77v36.62h-34.05v3.4h34.05v33.23h3.85v-33.28l34.05.18v-3.12c-11.36-.11-22.72-.22-34.08-.33-.08-12.23-.16-24.46-.24-36.7h-3.57Z"/>
    <path class="cls-17" d="M1013.61,759.53v36.62h-33.88v3.4h33.88v33.23h3.83v-33.28l33.88.18v-3.12c-11.3-.11-22.61-.22-33.91-.33-.08-12.23-.16-24.46-.24-36.7h-3.56Z"/>
    <path class="cls-17" d="M1094.57,759.53v36.62h-33.7v3.4h33.7v33.23h3.81v-33.28l33.7.18v-3.12c-11.24-.11-22.49-.22-33.73-.33-.08-12.23-.16-24.46-.24-36.7h-3.54Z"/>
    <path class="cls-17" d="M1094.57,845.77v36.62h-33.7v3.4h33.7v33.23h3.81v-33.28l33.7.18v-3.12c-11.24-.11-22.49-.22-33.73-.33-.08-12.23-.16-24.46-.24-36.7h-3.54Z"/>
  </g>
  <g id="Layer_1" data-name="Layer 1">
    <rect class="cls-26" x="444.03" y="353.81" width="1031.94" height="188.81"/>
    <text class="cls-34" transform="translate(598.78 488.79) scale(1.25 1)"><tspan class="cls-44" x="0" y="0">P</tspan><tspan class="cls-40" x="59.23" y="0">I</tspan><tspan x="89.05" y="0">ZZA </tspan><tspan class="cls-38" x="324.88" y="0">S</tspan><tspan x="383.13" y="0">L</tspan><tspan class="cls-45" x="434.82" y="0">I</tspan><tspan class="cls-43" x="464.86" y="0">C</tspan><tspan class="cls-39" x="526.78" y="0">E</tspan></text>
  </g>
  <g id="Layer_6" data-name="Layer 6">
    <rect class="cls-30" x="37.94" y="573.86" width="467.09" height="193.52" rx="13.6" ry="13.6"/>
    <text class="cls-36" transform="translate(51.67 621.72)"><tspan x="0" y="0">HJEL</tspan><tspan class="cls-37" x="58.11" y="0">P</tspan><tspan class="cls-35" x="72.87" y="0"> </tspan><tspan class="cls-42" x="78.35" y="0">Antonio i pizza slice. Han vil ikke </tspan><tspan x="8.82" y="27.28">ha ananas p책 pizzaen. </tspan><tspan class="cls-41" x="253.9" y="27.28">T</tspan><tspan x="266.54" y="27.28">rykk ananasen </tspan><tspan x="30.3" y="54.56">vekk og ikke la de falle p책 pizzaen. </tspan><tspan x="109.92" y="81.84">F책 mer en 15 poeng.</tspan><tspan class="cls-41" x="83.36" y="109.12">T</tspan><tspan x="96" y="109.12">rykk start n책r du er klar:</tspan></text>
    <path class="cls-25" d="M660.41,914.25s53.94-6.89,52.68-54.56c0,0-46.66-70.84-117.41,2.84,0,0-9.59,57.06,64.72,51.72Z"/>
    <path class="cls-27" d="M678.18,861.76c1.31-.22,2.74,1.44,3.16,2.98.58,2.19-.69,4.94-2.16,5.07-1.3.11-2.67-1.82-2.94-3.57-.28-1.83.52-4.24,1.95-4.48Z"/>
    <path class="cls-27" d="M623.3,864.68c1.32.09,2.33,2.04,2.37,3.64.06,2.26-1.82,4.64-3.28,4.42-1.29-.19-2.17-2.39-2.03-4.15.15-1.84,1.49-4.01,2.94-3.9Z"/>
    <path class="cls-25" d="M595.28,872.75s-4.72-5.74-5.16,3.04c0,0,2.9,6.4,4.7,5.94.94-.24,1.31-3.52,1.31-3.52h0s-.3-1.92-.86-5.47Z"/>
    <path class="cls-25" d="M712.95,865.78s4.05-4.38,4.77,1.95c0,0-3.41,12.47-6.17,6.67l1.4-8.62Z"/>
    <path class="cls-29" d="M644.84,896.39s4.18,12.95,16.71,4.96c0,0,3.89-1.94,1.87-7.84h-19.15l.57,2.88Z"/>
    <path class="cls-27" d="M653.36,885.04s1.97-6.19,14.78,0c0,0,24.21,14.64,58.82-4.36,0,0,5.35-2.39,0,2.81-4.09,3.76-19.09,16.62-41.75,17.23-15.03.41-26.42-4.76-31.86-7.71,0-2.66,0-5.32.01-7.98Z"/>
    <path class="cls-27" d="M653.36,885.04s-1.97-6.19-14.78,0c0,0-24.21,14.64-58.82-4.36,0,0-5.35-2.39,0,2.81,17.09,16.64,41.75,17.23,41.75,17.23,14.07.25,25.22-4.26,31.84-7.71,0-2.66,0-5.32.01-7.98Z"/>
    <path class="cls-27" d="M686.37,906.3c2.86,1.49,6.98,4.04,10.94,8.25,2.7,2.87,4.36,5.42,5.38,7,3.51,5.5,3.27,7.35,7.39,15.44,1.25,2.45,1.15,2.05,4.88,8.79,2.91,5.26,5.21,9.54,6.67,12.3.44.87.87,1.9,1.24,3.09.58,1.83,1.09,4.25.79,6.57,0,0,1.96,20.26-4.34,31.43,0,0-6.23,15.9-14.68,12.43,0,0-8.76-.79-1.84-17.15,0,0,5.19-14.64,5.19-16.68,0,0-9.44-14.88-14.32-18.77,1.11,22.61,2.29,37.42,3.62,46,.08.53.73,4.69-.06,10.02-.51,3.4-1.69,10.6-7.24,14.17-.98.63-1.88,1.01-2.5,1.23-.93.26-1.43.2-1.94.6-.73.56-.89,1.56-.92,2.28.21,9.9.49,16.26.75,20.54.01.21.1,1.75-.03,3.82-.23,3.52-.65,10.35-4.64,12.2-.92.43-2.02.61-3.34.45,0,0-5.8.7-7.03-11.78v-23.38s.18-3.16-2.81-3.52h-9.14s-2.64,1.41-2.81,4.75v22.68s.53,12.48-7.56,12.3c0,0-8.79,2.11-8.26-13.36l-.02-22.5s-1.03-2.29-2.97-2.46c-2.05-.63-5.6-2.1-8.24-5.52-2.03-2.63-2.62-5.26-3.28-8.17-.52-2.3-1.05-5.79-.7-10.13-.95-5.58-1.65-12.05-1.73-19.26-.12-10.95,1.23-20.43,2.88-27.93,0,0,4.57-12.48-7.03,10.37,0,0-1.23,15.47,3.34,25.14,0,0,5.27,19.16-7.21,15.82,0,0-10.37-2.46-11.95-17.93,0,0-8.26-22.94,1.23-44.3,1.03-4.6,2.8-10.36,5.99-16.52,5.58-10.77,12.9-17.8,17.84-21.81,5.67.93,12.98,1.74,21.52,1.69,4.68-.03,9.61-.08,15.82-1.16,5.25-.92,12.71-2.8,21.16-7.04Z"/>
    <path class="cls-33" d="M697.29,1005c-10.93.7-21.92,1.38-32.96,2.03-13.35.78-26.62,1.52-39.82,2.2-1.09-6.14-1.92-13.64-1.82-22.18.12-9.83,1.44-18.31,2.96-25.01.49-1.87.65-2.85.46-2.92-.18-.07-.65.65-1.42,2.14-2.02,3.72-4.04,7.43-6.07,11.15-.04,2.67.02,5.53.21,8.54.27,4.2.75,8.08,1.35,11.59-5.75,1.31-11.51,2.62-17.26,3.93-1.38-3.9-2.71-8.82-3.36-14.6-1.12-9.93.25-18.25,1.65-23.79,2.22-7.8,4.61-14.28,6.62-19.22,4.07-9.97,6.61-13.69,9.22-16.61,2.48-2.77,4.92-4.72,6.69-5.99,4.96,1.3,10.23,2.44,15.72,3.63,8.2,1.79,17.08,3.51,19.79,3.27,4.86-1.77,9.91-3.75,15.13-5.98,6.03-2.58,11.68-5.23,16.94-7.89.88.53,2.16,1.35,3.59,2.5,1.77,1.42,3.58,3.18,7.68,8.63,2.92,3.88,4.38,5.82,6.01,8.5,1.6,2.64,2.78,5.09,5.07,9.87.95,1.99,2.47,5.22,4.51,9.87,3.3,7.54,4.97,11.38,5.5,14.55.47,2.8.48,5.04.5,9.22.02,4.1-.23,7.2-.46,9.97-.37,4.48-.56,6.72-1.21,9.14-.91,3.39-2.24,5.98-3.2,7.63-5.51-1.57-11.02-3.15-16.52-4.72l5.19-16.68-11.75-16.24s-5.06-8.98-.4,1.61c0,0,8.6,34.38,1.45,41.86Z"/>
    <path class="cls-22" d="M658.3,914.2l.98,8.95s28.21-10.59,32.07-13.87c-.58-.5-1.29-1.05-2.14-1.57-1.03-.64-2-1.09-2.82-1.41-2.06.91-4.89,2.09-8.32,3.31-3.07,1.09-6.15,2.17-10.28,3.11-2.37.54-5.59,1.14-9.48,1.48Z"/>
    <path class="cls-31" d="M627.87,912.82c-.78.52-1.63,1.15-2.51,1.91-.6.52-1.13,1.04-1.6,1.53,0,0,21.61,6.01,35.51,6.9-.33-2.98-.65-5.97-.98-8.95-3.41.15-6.98.2-10.71.13-7.13-.14-13.73-.71-19.71-1.52Z"/>
    <path class="cls-28" d="M651.7,1007.95c.11-12.07-.09-24.74-.7-37.95-.73-15.89-1.97-30.96-3.56-45.14,3.94-.57,7.89-1.14,11.83-1.71"/>
    <ellipse class="cls-24" cx="674.04" cy="938.02" rx="1.54" ry="2.27"/>
    <ellipse class="cls-24" cx="674.04" cy="957.17" rx="1.5" ry="2.27"/>
    <ellipse class="cls-24" cx="674.82" cy="980.28" rx="1.7" ry="2.71"/>
    <ellipse class="cls-24" cx="676.52" cy="999.86" rx="1.76" ry="2.35"/>
    <path class="cls-33" d="M603.82,780.41s8.13,28.23-8.13,82.12c-.5,2.03-1,4.56-.39,4.82,1.07.46,4.89-6.29,5.72-7.66,7.85-13.04,38.55-27.59,69.3-22.1,16.45,2.94,33.38,11.69,38.59,19.5.47.71,3.39,5.22,4.21,4.83.68-.33-.45-3.97-.81-5.15-2.94-9.56-4.35-19.57-7.62-29.02-2.87-8.27-5.67-22.59-5.28-49.12,0,0,40.28-9.2,32.37-43.2,0,0-14.9-35.63-54.26-2.56,1.13-.64,15.9-9.34,17.06-26.85,1.03-15.53-9.46-25.51-10.84-26.78-4.28-2.68-11.28-6.37-20.5-8.18-20.55-4.02-48.13,2.14-55.32,19.15-3.14,7.43-1.45,14.72-1.04,16.35,3.19,12.5,14.65,18.16,16.62,19.09-2.71-1.95-15.71-10.86-32.1-7.63-15.62,3.08-32.04,16.73-31.21,32.62.85,16.25,19.59,32.41,43.63,29.76Z"/>
    <path class="cls-25" d="M702.8,994.46l16.52,4.72s-5.62,15.76-14.68,12.43c0,0-8.88-.59-1.84-17.15Z"/>
    <path class="cls-25" d="M602.93,996.47l17.37-3.52c.83,1.5,1.95,3.87,2.55,6.95.28,1.46,2.1,10.74-2.23,13.35-2.39,1.44-5.61.23-7.05-.3-3.09-1.15-4.85-3.26-6.01-4.68-3.52-4.32-4.39-9.16-4.63-11.8Z"/>
    <path class="cls-28" d="M623.76,779.69s.34,47.81-13.87,65.33"/>
    <line class="cls-28" x1="653.35" y1="777.02" x2="653.35" y2="824.35"/>
    <path class="cls-28" d="M678.83,777.02s-.7,36.03,12.51,52.01"/>
    <path class="cls-19" d="M567.66,738.27c-4.22,10.54-1.32,23.32,7.12,32.83.78.87,5.9,6.55,9.12,5.13.77-.34,1.17-.98,1.3-1.19,2.93-4.65-9.74-16.19-10.5-26.47-.44-6.03,2.98-14.86,21.01-26.63.76-1.3,1.5-2.92.88-3.71-1.4-1.8-8.85,1.87-10.02,2.45-5.24,2.58-14.79,7.27-18.91,17.58Z"/>
  </g>
</svg>