<?xml version="1.0" encoding="UTF-8"?>
<svg id="Layer_2" data-name="Layer 2" xmlns="http://www.w3.org/2000/svg" viewBox="0 0 121.63 281.59">
  <defs>
    <style>
      .cls-1 {
        fill: #f3f0f0;
      }

      .cls-1, .cls-2, .cls-3, .cls-4, .cls-5, .cls-6, .cls-7, .cls-8 {
        stroke-miterlimit: 10;
      }

      .cls-1, .cls-2, .cls-5, .cls-7 {
        stroke: #cfcfce;
      }

      .cls-9 {
        stroke-linecap: round;
        stroke-linejoin: round;
      }

      .cls-9, .cls-4 {
        fill: #010101;
        stroke: #010101;
      }

      .cls-2 {
        fill: #cfcfce;
      }

      .cls-3 {
        fill: #f8ddc7;
        stroke: #f8ddc7;
      }

      .cls-5 {
        fill: none;
      }

      .cls-6 {
        fill: #f7c7d0;
        stroke: #f7c7d0;
      }

      .cls-7 {
        fill: #f3f3f3;
      }

      .cls-10 {
        fill: #f7f8f8;
        stroke-width: 0px;
      }

      .cls-8 {
        fill: #f4f4f4;
        stroke: #f4f4f4;
      }
    </style>
  </defs>
  <g id="Layer_3" data-name="Layer 3">
    <path class="cls-3" d="M70.55,171.24s37.68-4.81,36.81-38.12c0,0-32.6-49.5-82.03,1.98,0,0-6.7,39.86,45.22,36.14Z"/>
    <path class="cls-4" d="M82.97,134.56c.91-.15,1.92,1.01,2.2,2.08.41,1.53-.48,3.45-1.51,3.54-.91.08-1.86-1.27-2.05-2.49-.2-1.28.36-2.96,1.36-3.13Z"/>
    <path class="cls-4" d="M44.62,136.6c.92.06,1.63,1.42,1.66,2.54.04,1.58-1.27,3.24-2.29,3.09-.9-.13-1.52-1.67-1.42-2.9.11-1.29,1.04-2.8,2.05-2.73Z"/>
    <path class="cls-3" d="M25.05,142.24s-3.3-4.01-3.6,2.12c0,0,2.03,4.47,3.29,4.15.65-.17.92-2.46.92-2.46h0s-.21-1.34-.6-3.82Z"/>
    <path class="cls-3" d="M107.26,137.37s2.83-3.06,3.33,1.36c0,0-2.38,8.71-4.31,4.66l.98-6.02Z"/>
    <path class="cls-4" d="M88.69,165.69c2,1.04,4.88,2.83,7.64,5.76,1.89,2.01,3.05,3.79,3.76,4.89,2.45,3.84,2.29,5.14,5.16,10.79.87,1.71.8,1.44,3.41,6.14,2.04,3.67,3.64,6.67,4.66,8.59.31.61.61,1.33.87,2.16.41,1.28.76,2.97.55,4.59,0,0,1.37,14.16-3.03,21.96,0,0-4.36,11.11-10.26,8.69,0,0-6.12-.55-1.29-11.99,0,0,3.63-10.23,3.63-11.66,0,0-6.6-10.4-10.01-13.12.77,15.8,1.6,26.15,2.53,32.14.06.37.51,3.28-.04,7-.36,2.38-1.18,7.41-5.06,9.9-.69.44-1.32.7-1.75.86-.65.18-1,.14-1.36.42-.51.39-.62,1.09-.64,1.59.15,6.92.34,11.36.52,14.35,0,.15.07,1.22-.02,2.67-.16,2.46-.46,7.23-3.24,8.53-.64.3-1.41.43-2.34.32,0,0-4.05.49-4.91-8.23v-16.34s.12-2.21-1.97-2.46h-6.39s-1.84.98-1.97,3.32v15.84s.37,8.72-5.28,8.6c0,0-6.14,1.47-5.77-9.33l-.02-15.72s-.72-1.6-2.07-1.72c-1.43-.44-3.91-1.46-5.75-3.86-1.42-1.84-1.83-3.68-2.29-5.71-.37-1.61-.73-4.05-.49-7.08-.66-3.9-1.16-8.42-1.21-13.46-.09-7.65.86-14.27,2.01-19.51,0,0,3.19-8.72-4.91,7.25,0,0-.86,10.81,2.33,17.56,0,0,3.68,13.39-5.04,11.05,0,0-7.25-1.72-8.35-12.53,0,0-5.77-16.03.86-30.95.72-3.22,1.96-7.24,4.19-11.54,3.9-7.53,9.01-12.44,12.46-15.24,3.96.65,9.07,1.21,15.04,1.18,3.27-.02,6.71-.05,11.05-.81,3.67-.64,8.88-1.96,14.79-4.92Z"/>
    <path class="cls-8" d="M96.32,234.65c-7.64.49-15.31.97-23.03,1.42-9.32.55-18.6,1.06-27.82,1.54-.76-4.29-1.34-9.53-1.27-15.5.08-6.87,1-12.79,2.07-17.47.35-1.31.45-1.99.32-2.04-.12-.05-.45.45-.99,1.5-1.41,2.6-2.83,5.19-4.24,7.79-.03,1.87.01,3.86.15,5.97.19,2.94.53,5.65.94,8.1-4.02.91-8.04,1.83-12.06,2.74-.96-2.72-1.89-6.17-2.35-10.2-.78-6.94.17-12.75,1.15-16.62,1.55-5.45,3.22-9.98,4.63-13.43,2.84-6.97,4.62-9.56,6.44-11.61,1.73-1.94,3.43-3.3,4.68-4.18,3.47.91,7.14,1.7,10.99,2.54,5.73,1.25,11.93,2.45,13.83,2.28,3.39-1.23,6.93-2.62,10.57-4.18,4.21-1.8,8.16-3.66,11.84-5.51.61.37,1.51.94,2.51,1.75,1.24.99,2.5,2.22,5.37,6.03,2.04,2.71,3.06,4.07,4.2,5.94,1.12,1.84,1.94,3.55,3.54,6.9.66,1.39,1.72,3.65,3.15,6.9,2.31,5.27,3.47,7.95,3.84,10.17.33,1.96.33,3.52.35,6.44.02,2.86-.16,5.03-.32,6.97-.26,3.13-.39,4.69-.85,6.39-.64,2.37-1.56,4.18-2.24,5.33-3.85-1.1-7.7-2.2-11.55-3.3l3.63-11.66-8.21-11.35s-3.53-6.28-.28,1.12c0,0,6.01,24.02,1.02,29.25Z"/>
    <path class="cls-1" d="M69.07,171.2l.68,6.26s19.71-7.4,22.4-9.69c-.41-.35-.9-.73-1.5-1.1-.72-.44-1.4-.76-1.97-.98-1.44.63-3.41,1.46-5.81,2.31-2.14.76-4.29,1.52-7.18,2.17-1.66.37-3.9.79-6.62,1.04Z"/>
    <path class="cls-7" d="M47.81,170.24c-.55.36-1.14.8-1.75,1.33-.42.36-.79.72-1.12,1.07,0,0,15.1,4.2,24.81,4.82-.23-2.09-.46-4.17-.68-6.26-2.38.1-4.88.14-7.49.09-4.98-.09-9.59-.49-13.77-1.06Z"/>
    <path class="cls-5" d="M64.46,236.7c.08-8.43-.06-17.29-.49-26.51-.51-11.1-1.38-21.63-2.49-31.54l8.27-1.19"/>
    <ellipse class="cls-2" cx="80.07" cy="187.85" rx="1.08" ry="1.59"/>
    <ellipse class="cls-2" cx="80.07" cy="201.23" rx="1.05" ry="1.59"/>
    <ellipse class="cls-2" cx="80.62" cy="217.37" rx="1.19" ry="1.9"/>
    <ellipse class="cls-2" cx="81.8" cy="231.06" rx="1.23" ry="1.64"/>
    <path class="cls-8" d="M31.01,77.73s5.68,19.72-5.68,57.38c-.35,1.42-.7,3.19-.27,3.37.75.32,3.42-4.4,3.99-5.35,5.49-9.11,26.94-19.28,48.42-15.44,11.49,2.05,23.32,8.17,26.96,13.62.33.49,2.37,3.65,2.94,3.37.48-.23-.31-2.77-.57-3.6-2.06-6.68-3.04-13.67-5.33-20.28-2-5.78-3.96-15.78-3.69-34.32,0,0,28.15-6.43,22.62-30.18,0,0-10.41-24.89-37.91-1.79.79-.45,11.11-6.53,11.92-18.76.72-10.85-6.61-17.82-7.58-18.71-2.99-1.87-7.88-4.45-14.32-5.71-14.36-2.81-33.63,1.49-38.65,13.38-2.2,5.19-1.02,10.28-.73,11.42,2.23,8.73,10.24,12.69,11.61,13.34-1.89-1.36-10.97-7.59-22.42-5.33C11.41,36.29-.06,45.82.52,56.93c.59,11.35,13.69,22.64,30.49,20.79Z"/>
    <path class="cls-3" d="M100.17,227.28l11.55,3.3s-3.93,11.01-10.26,8.69c0,0-6.21-.41-1.29-11.99Z"/>
    <path class="cls-3" d="M30.39,228.68l12.14-2.46c.58,1.05,1.36,2.7,1.78,4.86.2,1.02,1.47,7.51-1.56,9.33-1.67,1-3.92.16-4.92-.21-2.16-.81-3.39-2.28-4.2-3.27-2.46-3.02-3.06-6.4-3.24-8.24Z"/>
    <path class="cls-5" d="M44.94,77.22s.24,33.4-9.69,45.64"/>
    <line class="cls-5" x1="65.61" y1="75.36" x2="65.61" y2="108.42"/>
    <path class="cls-5" d="M83.42,75.36s-.49,25.18,8.74,36.34"/>
    <path class="cls-10" d="M5.74,48.28c-2.95,7.36-.92,16.29,4.97,22.94.54.61,4.13,4.58,6.37,3.58.54-.24.82-.68.91-.83,2.05-3.25-6.81-11.31-7.33-18.49-.31-4.21,2.08-10.38,14.68-18.61.53-.91,1.05-2.04.62-2.59-.98-1.26-6.19,1.31-7,1.71-3.66,1.8-10.33,5.08-13.21,12.28Z"/>
    <path class="cls-6" d="M58.07,160.39s9.85,1.73,14.65,0l-7.1-3.99-7.55,3.99Z"/>
    <path class="cls-4" d="M65.62,150.83s-1.38-4.33-10.32,0c0,0-16.91,10.23-41.1-3.05,0,0-3.74-1.67,0,1.97,11.94,11.63,29.17,12.04,29.17,12.04,9.83.17,17.62-2.97,22.25-5.38,0-1.86,0-3.72,0-5.57Z"/>
    <path class="cls-4" d="M65.62,150.83s1.38-4.33,10.32,0c0,0,16.91,10.23,41.1-3.05,0,0,3.74-1.67,0,1.97-2.86,2.63-13.34,11.61-29.17,12.04-10.5.28-18.46-3.33-22.26-5.38,0-1.86,0-3.72,0-5.57Z"/>
    <line class="cls-9" x1="43.42" y1="131.89" x2="39.08" y2="136.34"/>
    <line class="cls-9" x1="82.3" y1="129.49" x2="87.79" y2="133.49"/>
  </g>
</svg>