<?xml version="1.0" encoding="UTF-8"?>
<svg id="Layer_2" data-name="Layer 2" xmlns="http://www.w3.org/2000/svg" viewBox="0 0 142.39 93.39">
  <defs>
    <style>
      .cls-1 {
        fill: #010101;
      }

      .cls-1, .cls-2, .cls-3, .cls-4, .cls-5, .cls-6, .cls-7 {
        stroke-width: 0px;
      }

      .cls-2 {
        fill: #c53231;
      }

      .cls-3 {
        fill: #f7ce74;
      }

      .cls-4 {
        fill: #a71e22;
      }

      .cls-5 {
        fill: #b22024;
      }

      .cls-6 {
        fill: #f4aa34;
      }

      .cls-7 {
        fill: #a41e22;
      }
    </style>
  </defs>
  <g id="Layer_7" data-name="Layer 7">
    <path class="cls-2" d="M77.01,10.25S5.53,69.55,4.13,74.67c0,0-11.45,6.63,4.47,13.83,18.98-2.27,34.71-4.79,46.25-6.82,23.9-4.21,44.42-8.89,61.11-12.7,5.82-1.33,10.61-2.45,13.82-3.22,0,0,26.81-3.55,0-28.83-11.03-10.45-22.06-20.9-33.08-31.35h-17.72c-.36.21-.81.54-1.21,1.07-1.12,1.47-.83,3.23-.76,3.61Z"/>
    <path class="cls-3" d="M7.86,88.53c3.21,2.96,4,5.03,5.45,4.85,1.29-.16.95-2.37,3.14-4.26,2.01-1.73,4.6-1.87,6.18-1.95,3.22-.18,3.32.91,5.83.71,4.33-.35,5.75-3.74,8.06-3,2.29.73,1.66,4.29,3.65,4.96,3,1.01,5.78-7.54,12.31-8.3,2.54-.3,2.46.94,5.59.65,5.22-.48,7.22-4.09,10.17-3.05,2.21.78,2.46,3.28,3.85,3.12,1.99-.22,1.89-5.42,4.14-5.96,2.3-.55,3.77,4.54,6.97,4.58,2.95.03,3.36-4.28,8.93-7.84.8-.51,3.77-2.33,7.82-2.9,4.36-.61,4.69.96,9.61,1.01,6.58.06,12.31-2.22,16.38-3.91,1.17-.49,2.11-.93,2.72-1.22-1.7-2.85-3.53-4.01-4.88-4.55-2.29-.9-3.56-.16-5.52-1.44-1.69-1.1-1.21-1.97-3.26-4.11-2.53-2.65-3.9-2.01-5.26-4.16-1.46-2.31-.16-3.5-1.64-5.35-1.45-1.81-3-1.06-5.54-3.13-1.88-1.53-1.25-2.12-3.1-3.86-3.05-2.87-5.4-1.86-7.09-4.32-1.44-2.09,0-3.2-1.4-5.14-2.06-2.86-5.94-1.49-7.47-4.2-.99-1.74.49-2.52-.47-4.59-1.3-2.82-4.24-1.82-7.63-5.37-.49-.51-2.07-2.26-2.77-1.9-.04.02-.05.04-.21.18-.19.16-.76.64-1.18,1-1.19,1.02-1.2,1.08-1.93,1.67-.65.53-.67.51-1.32,1.05-.63.53-.63.57-1.32,1.16-.75.64-.92.73-1.85,1.51-.47.39-.81.68-1.23,1.04-2.18,1.89-3.27,2.83-3.62,3.13-2.3,2.02-5.38,4.46-7.3,6.02-3.14,2.54-5.4,4.47-9.91,8.33-2.79,2.39-6.28,5.45-13.25,11.56-2.2,1.93-3.3,2.89-4.4,3.86-3.67,3.24-4.06,3.62-10.72,9.58-.49.44-.86.77-1.38,1.25-2.23,2.05-3.03,2.97-4.92,4.77-.23.22-.64.61-1.16,1.16-.28.3-.52.57-.92,1.01-.48.54-.84.94-.89,1-1.72,1.96-3.93,3.22-4.76,5.52-.13.35-.51,1.44-.3,2.71.5,2.94,3.56,3.22,7.79,7.12Z"/>
    <path class="cls-6" d="M133.51,64.82s-7.17.16-14.1-10.24c0,0-31.59-34.93-42.4-44.33-.37-.82-.75-2.02-.54-3.37.61-3.93,6.17-6.19,9.5-6.73,7.33-1.19,13.8,4.47,22.01,11.84,7.66,6.88,6.16,7.66,15.45,16.54,7.67,7.33,10.51,8.54,14.15,14.45,2.4,3.89,6.77,10.97,3.84,16.48-1.87,3.51-5.87,4.84-7.91,5.35Z"/>
    <path class="cls-7" d="M88.96,47.76c-.67-1.22-2.07-3.35-4.62-4.69-5.01-2.63-10.4-.11-12.13.71-5.96,2.79-11.91,9.67-10.01,13.44,1.94,3.84,11.14,2.67,11.75,2.59,0,0,20.4-1.27,15.01-12.04Z"/>
    <path class="cls-5" d="M25.1,54.41c1.36.14,6.17.69,7.52,3.67,1.89,4.16-3.85,11.08-10.02,13.65-5.22,2.17-10.19.99-12.2.39-.17-.06-1.02-.4-1.35-1.27-.36-.94.04-2.12,1.03-2.81,2.13-2.03,4.32-4.08,6.58-6.15,2.84-2.6,5.66-5.09,8.44-7.48Z"/>
    <path class="cls-4" d="M72.63,13.9c.3,1.28.6,3.29.11,5.6-2.24,10.49-18.58,15.91-20.42,13.59-.28-.36-.34-1.05.34-2.44l19.96-16.76Z"/>
    <path class="cls-1" d="M44.25,64.13c-.29,2.06.82,4.66,3.07,5.16,2.3.51,4.49-1.47,5.02-3.58.6-2.38-.79-5.35-3.18-5.76-2.35-.4-4.58,1.84-4.91,4.19Z"/>
    <path class="cls-1" d="M98.15,55.41c-.84.45-1.31,1.48-1.12,2.54.81.63,1.86.74,2.66.29.82-.46,1.49-1.55,1.11-2.34-.39-.81-1.75-.98-2.65-.5Z"/>
    <path class="cls-1" d="M74.67,27.78c-.86.68-.87,1.81-.87,1.99.79.3,1.62.18,2.15-.31.63-.58.86-1.67.44-2.04-.38-.34-1.24-.02-1.73.37Z"/>
  </g>
</svg>